<svg xmlns="http://www.w3.org/2000/svg" width="24" height="24" viewBox="0 0 24 24"><defs><style>.a{fill:#211522;}</style></defs><path class="a" d="M156,160.688a.937.937,0,0,0,.938.938h2.813v2.813a.938.938,0,0,0,1.875,0v-2.812h2.813a.938.938,0,0,0,0-1.875h-2.812v-2.812a.938.938,0,0,0-1.875,0v2.813h-2.812A.937.937,0,0,0,156,160.688Z" transform="translate(-148.688 -148.688)"/><path class="a" d="M134.042,14.906l1.213-.5a.938.938,0,1,0-.718-1.732l-1.213.5a.938.938,0,1,0,.718,1.732Z" transform="translate(-126.523 -12.009)"/><path class="a" d="M12,0a.938.938,0,0,0,0,1.875A10.125,10.125,0,1,1,1.875,12,.938.938,0,0,0,0,12,12,12,0,1,0,12,0Z"/><path class="a" d="M60.823,61.752l.928-.928A.938.938,0,0,0,60.425,59.5l-.928.928a.938.938,0,0,0,1.326,1.326Z" transform="translate(-56.447 -56.447)"/><path class="a" d="M13.18,135.763a.938.938,0,0,0,1.225-.507l.5-1.213a.938.938,0,0,0-1.732-.718l-.5,1.213A.938.938,0,0,0,13.18,135.763Z" transform="translate(-12.01 -126.524)"/></svg>