<svg xmlns="http://www.w3.org/2000/svg" width="9.348" height="9.348" viewBox="0 0 9.348 9.348"><defs><style>.a{fill:#211522;}</style></defs><path class="a" d="M2.921,5.063A1.753,1.753,0,1,1,4.674,3.311,1.753,1.753,0,0,1,2.921,5.063Zm0-2.726a.974.974,0,1,0,.974.974A.974.974,0,0,0,2.921,2.337ZM5.842,8.958V8.764A2.921,2.921,0,0,0,0,8.764v.195a.389.389,0,0,0,.779,0V8.764a2.142,2.142,0,0,1,4.284,0v.195a.389.389,0,0,0,.779,0ZM9.348,7.011A2.726,2.726,0,0,0,4.8,4.979a.389.389,0,1,0,.52.58A1.947,1.947,0,0,1,8.569,7.011a.389.389,0,0,0,.779,0ZM6.816,3.505A1.753,1.753,0,1,1,8.569,1.753,1.753,1.753,0,0,1,6.816,3.505Zm0-2.726a.974.974,0,1,0,.974.974A.974.974,0,0,0,6.816.779Z"/></svg>