<svg xmlns="http://www.w3.org/2000/svg" width="8" height="11.903" viewBox="0 0 8 11.903"><defs><style>.a{fill:#211522;}</style></defs><g transform="translate(-83.938)"><g transform="translate(83.938)"><g transform="translate(0)"><path class="a" d="M87.938,0a4,4,0,0,0-4,3.989,3.95,3.95,0,0,0,.776,2.362l3.031,4.487a.234.234,0,0,0,.387,0l3.031-4.487a3.95,3.95,0,0,0,.776-2.362A4,4,0,0,0,87.938,0Zm2.845,6.08-.009.012-2.836,4.2L85.1,6.093l-.009-.013A3.489,3.489,0,0,1,84.4,3.989a3.534,3.534,0,0,1,7.067,0A3.489,3.489,0,0,1,90.783,6.08Z" transform="translate(-83.938)"/></g></g><g transform="translate(86.012 2.079)"><path class="a" d="M179.375,92.451a.241.241,0,0,0-.241.241,1.444,1.444,0,1,1-.637-1.2.241.241,0,1,0,.269-.4,1.926,1.926,0,1,0,.849,1.6A.241.241,0,0,0,179.375,92.451Z" transform="translate(-175.765 -90.766)"/></g><g transform="translate(84.934 11.421)"><g transform="translate(0)"><path class="a" d="M131.22,491.941h-5.538a.241.241,0,0,0,0,.481h5.538a.241.241,0,0,0,0-.481Z" transform="translate(-125.451 -491.941)"/></g></g><g transform="translate(89.135 2.971)"><g transform="translate(0)"><path class="a" d="M308.2,127.98h0a.241.241,0,1,0,0,.481h0a.241.241,0,0,0,0-.481Z" transform="translate(-307.952 -127.98)"/></g></g></g></svg>